Coordinates
version=1
nRows=9
nColumns=63
inDegrees=yes

Units are S.I. units (second, meters, Newtons, ...)
If the header above contains a line with 'inDegrees', this indicates whether rotational values are in degrees (yes) or radians (no).

endheader
time	pelvis_tilt	pelvis_list	pelvis_rotation	pelvis_tx	pelvis_ty	pelvis_tz	hip_flexion_r	hip_adduction_r	hip_rotation_r	knee_angle_r	knee_angle_r_beta	ankle_angle_r	subtalar_angle_r	mtp_angle_r	hip_flexion_l	hip_adduction_l	hip_rotation_l	knee_angle_l	knee_angle_l_beta	ankle_angle_l	subtalar_angle_l	mtp_angle_l	L5_S1_Flex_Ext	L5_S1_Lat_Bending	L5_S1_axial_rotation	L4_L5_Flex_Ext	L4_L5_Lat_Bending	L4_L5_axial_rotation	L3_L4_Flex_Ext	L3_L4_Lat_Bending	L3_L4_axial_rotation	L2_L3_Flex_Ext	L2_L3_Lat_Bending	L2_L3_axial_rotation	L1_L2_Flex_Ext	L1_L2_Lat_Bending	L1_L2_axial_rotation	L1_T12_Flex_Ext	L1_T12_Lat_Bending	L1_T12_axial_rotation	Abs_r3	Abs_r2	Abs_r1	Abs_t1	Abs_t2	neck_flexion	neck_bending	neck_rotation	arm_flex_r	arm_add_r	arm_rot_r	elbow_flex_r	pro_sup_r	wrist_flex_r	wrist_dev_r	arm_flex_l	arm_add_l	arm_rot_l	elbow_flex_l	pro_sup_l	wrist_flex_l	wrist_dev_l
0.000000	5.608476	5.011974	98.711084	0.219791	0.843311	0.572878	-14.661627	6.639685	15.142782	0.464254	0.008103	22.773947	-17.112829	0.000000	-14.412067	-4.632726	4.431615	0.134396	0.002346	35.163382	-8.335691	0.000000	-1.263787	0.868676	0.400061	-2.346979	1.155339	0.425065	-2.076276	2.112098	0.425065	-1.444383	2.112098	0.350054	-1.173553	1.771404	0.325050	-0.722128	1.345579	0.300046	-9.027106	9.826633	2.225022	0.000000	0.000000	27.357429	-2.921706	8.115307	10.753224	-12.004305	154.500407	3.501608	4.183996	-7.400673	-2.985482	13.205363	-2.858410	181.714004	7.336349	11.582264	-5.986053	1.334720
0.016667	6.141229	5.091773	97.707770	0.221052	0.843677	0.572918	-14.704995	6.944084	15.377911	0.437907	0.007643	21.962662	-16.595987	0.000000	-14.606912	-4.927607	4.499193	0.132287	0.002309	34.268329	-10.053381	0.000000	-1.266559	0.936074	0.536983	-2.352127	1.244979	0.570544	-2.080830	2.275971	0.570544	-1.447550	2.275971	0.469860	-1.176127	1.908842	0.436299	-0.723712	1.449979	0.402737	-9.046904	10.589057	2.986537	0.000000	0.000000	27.092074	-3.186121	8.773462	10.918209	-12.158760	158.121721	3.317799	4.579239	-7.512372	-2.778896	12.992497	-2.701901	178.274522	6.724042	14.916024	-6.015280	1.313984
0.033333	6.577945	5.179618	96.905773	0.222059	0.843978	0.572859	-14.763097	7.209884	15.530139	0.419971	0.007330	21.359473	-16.149353	0.000000	-14.792267	-5.184678	4.539309	0.131365	0.002293	33.645092	-11.379600	0.000000	-1.271048	0.991178	0.643607	-2.360464	1.318267	0.683833	-2.088205	2.409951	0.683833	-1.452681	2.409951	0.563156	-1.180295	2.021211	0.522931	-0.726277	1.535335	0.482705	-9.078970	11.212406	3.579550	0.000000	0.000000	26.874790	-3.386895	9.282581	11.042432	-12.290478	160.711952	3.206517	4.845698	-7.576351	-2.634772	12.795898	-2.581791	175.433767	6.241213	17.827670	-6.028806	1.293177
0.050000	6.927947	5.266988	96.289923	0.222828	0.844209	0.572723	-14.825684	7.439860	15.607613	0.409396	0.007145	20.941815	-15.769883	0.000000	-14.958887	-5.406804	4.560914	0.131480	0.002295	33.263568	-12.354383	0.000000	-1.276039	1.035157	0.722285	-2.369731	1.376758	0.767428	-2.096404	2.516880	0.767428	-1.458385	2.516880	0.632000	-1.184929	2.110891	0.586857	-0.729128	1.603457	0.541714	-9.114616	11.709898	4.017135	0.000000	0.000000	26.702705	-3.530692	9.660990	11.129732	-12.401245	162.390461	3.158377	4.999176	-7.597483	-2.545773	12.615436	-2.493145	173.148603	5.873216	20.348344	-6.032073	1.271810
0.066667	7.200559	5.345359	95.845050	0.223376	0.844362	0.572535	-14.882506	7.636785	15.618481	0.405135	0.007071	20.687124	-15.454534	0.000000	-15.097528	-5.596851	4.572958	0.132484	0.002312	33.093654	-13.017767	0.000000	-1.280314	1.069178	0.775368	-2.377671	1.422006	0.823829	-2.103428	2.599598	0.823829	-1.463271	2.599598	0.678447	-1.188900	2.180267	0.629987	-0.731571	1.656156	0.581526	-9.145155	12.094751	4.312366	0.000000	0.000000	26.572942	-3.624175	9.927018	11.183945	-12.492843	163.276611	3.163996	5.055474	-7.580638	-2.504564	12.450981	-2.431026	171.375892	5.605402	22.509190	-6.030522	1.249390
0.083333	7.405107	5.406209	95.555985	0.223720	0.844431	0.572318	-14.923314	7.803431	15.570890	0.406139	0.007088	20.572835	-15.200261	0.000000	-15.198946	-5.757681	4.584389	0.134227	0.002343	33.105247	-13.409785	0.000000	-1.282658	1.094410	0.805207	-2.382024	1.455565	0.855532	-2.107278	2.660948	0.855532	-1.465950	2.660948	0.704556	-1.191076	2.231721	0.654231	-0.732911	1.695241	0.603905	-9.161896	12.380183	4.478319	0.000000	0.000000	26.482629	-3.674008	10.098993	11.208910	-12.567057	163.489763	3.213989	5.030398	-7.530690	-2.503807	12.302401	-2.390500	170.072498	5.423122	24.341349	-6.029594	1.225426
0.100000	7.550914	5.441015	95.407559	0.223878	0.844412	0.572096	-14.937859	7.942572	15.472986	0.411361	0.007180	20.576385	-15.004021	0.000000	-15.253895	-5.892159	4.604157	0.136561	0.002383	33.268242	-13.570474	0.000000	-1.281854	1.112022	0.814151	-2.380531	1.478989	0.865036	-2.105957	2.703770	0.865036	-1.465031	2.703770	0.712383	-1.190329	2.267635	0.661498	-0.732451	1.722522	0.610614	-9.156153	12.579412	4.528066	0.000000	0.000000	26.428890	-3.686855	10.195242	11.208466	-12.625670	163.149279	3.298972	4.939749	-7.452511	-2.536167	12.169566	-2.366630	169.195285	5.311727	25.875964	-6.034733	1.199427
0.116667	7.647305	5.441255	95.384600	0.223866	0.844297	0.571892	-14.915892	8.056981	15.332917	0.419752	0.007326	20.675208	-14.862770	0.000000	-15.253131	-6.003151	4.641213	0.139338	0.002432	33.552536	-13.539869	0.000000	-1.276685	1.123182	0.804553	-2.370932	1.493832	0.854838	-2.097466	2.730904	0.854838	-1.459124	2.730904	0.703984	-1.185530	2.290392	0.653699	-0.729498	1.739809	0.603415	-9.119236	12.705658	4.474684	0.000000	0.000000	26.408852	-3.669379	10.234094	11.186449	-12.670466	162.374521	3.409559	4.799331	-7.350974	-2.594309	12.052345	-2.354480	168.701114	5.256571	27.144177	-6.051380	1.170902
0.133333	7.703603	5.398405	95.471941	0.223702	0.844080	0.571730	-14.847162	8.149431	15.158830	0.430265	0.007510	20.846740	-14.773466	0.000000	-15.187409	-6.093519	4.704506	0.142407	0.002485	33.928027	-13.358004	0.000000	-1.265936	1.129059	0.778763	-2.350970	1.501648	0.827436	-2.079807	2.745193	0.827436	-1.446839	2.745193	0.681418	-1.175548	2.302376	0.632745	-0.723356	1.748912	0.584072	-9.042457	12.772137	4.331245	0.000000	0.000000	26.419639	-3.628243	10.233875	11.146698	-12.703230	161.284851	3.536367	4.624947	-7.230950	-2.670894	11.950607	-2.349115	168.546849	5.243004	28.177132	-6.084976	1.139358
